<svg height="379" viewBox="0 0 333 379" width="333" xmlns="http://www.w3.org/2000/svg"><g fill="none" fill-rule="evenodd" transform="translate(4 4)"><path d="m231.43.56v230.91h-230.85" stroke="#231b3b" stroke-width="9.03"/><path d="m323.77 323.83h-230.85l-92.34-92.36v-230.91h230.85l92.34 92.36z" stroke="#231b3b" stroke-width="9.03"/><g fill="#f62c72"><path d="m284.05 154.23-39.64-39.65-6.53-6.53-6.45-6.45v33.12l12.98 12.98 6.53 6.53 39.64 39.65 6.53 6.53 26.66 26.67v-33.12l-33.19-33.2z"/><path d="m284.05 200.41-39.64-39.65-6.53-6.53-6.45-6.45v33.12l12.98 12.98 6.53 6.53 39.64 39.65 6.53 6.53 26.66 26.67v-33.12l-33.19-33.2z"/><path d="m284.05 61.87-39.64-39.66-6.53-6.53-6.45-6.45v33.12l12.98 12.99 6.53 6.53 39.64 39.65 6.53 6.53 26.66 26.67v-33.12l-33.19-33.2z"/><path d="m284.05 108.05-39.64-39.65-6.53-6.53-6.45-6.46v33.13l12.98 12.98 6.53 6.53 39.64 39.65 6.53 6.53 26.66 26.67v-33.12l-33.19-33.2z"/><path d="m237.88 292.77-39.64-39.65-6.53-6.53-15.12-15.12h-33.11l8.59 8.59 6.53 6.53 39.64 39.65 6.53 6.53 31.05 31.06h33.11l-24.52-24.53z"/><path d="m99.37 292.77-39.64-39.65-6.53-6.53-15.12-15.12h-33.11l8.59 8.59 6.53 6.53 39.64 39.65 6.53 6.53 31.05 31.06h33.11l-24.52-24.53z"/><path d="m145.54 292.77-39.64-39.65-6.53-6.53-15.12-15.12h-33.11l8.59 8.59 6.53 6.53 39.64 39.65 6.53 6.53 31.05 31.06h33.11l-24.52-24.53z"/><path d="m323.77 92.92-31.35-31.36.31.31z"/><path d="m284.05 292.77-39.64-39.65-6.53-6.53-15.12-15.12h-33.11l8.59 8.59 6.53 6.53 39.64 39.65 6.53 6.53 31.05 31.06h33.11l-24.52-24.53z"/><path d="m284.05 246.59-39.64-39.65-6.53-6.53-6.45-6.45v33.12l12.98 12.98 6.53 6.53 39.64 39.65 6.53 6.53 26.66 26.67v-33.12l-33.19-33.2z"/><path d="m246.56 15.68 21.45 21.46-36.58-36.58 12.98 12.98z"/></g><g fill="#231b3b"><path d="m290.58 101.52-39.64-39.65-6.53-6.53-12.98-12.99v13.06l6.45 6.46 6.53 6.53 39.64 39.65 6.53 6.53 33.19 33.2v-13.06l-26.66-26.67z"/><path d="m292.73 61.87-.31-.31-1.84-1.84-22.57-22.58-21.45-21.46-2.15-2.14-12.98-12.98v8.67l6.45 6.45 6.53 6.53 39.64 39.66 6.53 6.53 33.19 33.2v-8.68z"/><path d="m290.58 147.7-39.64-39.65-6.53-6.53-12.98-12.98v13.06l6.45 6.45 6.53 6.53 39.64 39.65 6.53 6.53 33.19 33.2v-13.06l-26.66-26.67z"/><path d="m290.58 193.88-39.64-39.65-6.53-6.53-12.98-12.98v13.06l6.45 6.45 6.53 6.53 39.64 39.65 6.53 6.53 33.19 33.2v-13.06l-26.66-26.67z"/><path d="m290.58 240.06-39.64-39.65-6.53-6.53-12.98-12.98v13.06l6.45 6.45 6.53 6.53 39.64 39.65 6.53 6.53 33.19 33.2v-13.06l-26.66-26.67z"/><path d="m290.58 286.24-39.64-39.65-6.53-6.53-12.98-12.98v4.39h-8.67l15.12 15.12 6.53 6.53 39.64 39.65 6.53 6.53 24.52 24.53h8.67v-4.39l-26.66-26.67z"/><path d="m244.41 286.24-39.64-39.65-6.53-6.53-8.59-8.59h-13.06l15.12 15.12 6.53 6.53 39.64 39.65 6.53 6.53 24.52 24.53h13.06l-31.05-31.06z"/><path d="m198.24 286.24-39.64-39.65-6.53-6.53-8.59-8.59h-13.06l15.12 15.12 6.53 6.53 33.53 33.53v-.05l34.41 33.88v.6l2.75 2.75h13.06l-31.05-31.06z"/><path d="m152.07 286.24-39.64-39.65-6.53-6.53-8.59-8.59h-13.06l15.12 15.12 6.53 6.53 39.64 39.65 6.53 6.53 24.52 24.53h13.06l-31.05-31.06z"/><path d="m105.9 286.24-39.64-39.65-6.53-6.53-8.59-8.59h-13.06l15.12 15.12 6.53 6.53 39.64 39.65 6.53 6.53 24.52 24.53h13.06l-31.05-31.06z"/><path d="m59.73 286.24-39.64-39.65-6.53-6.53-8.59-8.59h-4.39l12.98 12.98 2.15 2.14 44.02 44.04 2.15 2.14 31.04 31.06h4.39l-31.05-31.06z"/></g><path d="m220.01 320.48-34.41-33.88v.05l-33.53-33.53-6.53-6.53-15.12-15.12h-33.11l8.59 8.59 6.53 6.53 39.64 39.65 6.53 6.53 31.05 31.06h.51l29.87 29.14-.02-29.14h2.75l-2.75-2.75z" fill="#f62c72"/><path d="m226.02 228.25h-74.36v65.14l-66.96-65.14h-84.16v-227.71h225.48z" fill="#fff" stroke="#231b3b" stroke-width="9.08"/><path d="m327.93 97.37h-7.72v222.89h-90.94v-1.51h-10l.14 32.41-126.26-121.12c-1.9909865-1.913667-5.1563333-1.850987-7.07.14s-4.8889125.87857-2.8352458 3.062122l89.4852458 87.007878h-81.38v7.72h89v-.42l39.29 37.7 9.86 9.59-.2-46.87h98.48v-7.41h.15z" fill="#231b3b"/><path d="m72.96875 137h-37.9257812v-7.978516l13.6191406-13.767578c4.0325722-4.131531 6.6673115-6.995109 7.9042968-8.59082 1.2369854-1.595711 2.1276015-3.073886 2.671875-4.43457.5442736-1.360684.8164063-2.7708264.8164063-4.2304691 0-2.1770942-.5999289-3.7975207-1.7998047-4.8613281-1.1998758-1.0638075-2.8017478-1.5957032-4.805664-1.5957032-2.1028751 0-4.1438704.4824171-6.1230469 1.4472656-1.9791766.9648486-4.0449111 2.3378818-6.1972657 4.1191407l-6.234375-7.3847657c2.6718884-2.276053 4.886059-3.8841098 6.6425782-4.8242187s3.6738177-1.6637344 5.7519531-2.1708984 4.403633-.7607422 6.9765625-.7607422c3.3893399 0 6.3827995.6184834 8.9804688 1.8554687 2.5976692 1.2369854 4.6139251 2.9687389 6.0488281 5.1953125 1.434903 2.2265737 2.1523437 4.7747253 2.1523437 7.6445313 0 2.4987104-.4391232 4.8427626-1.3173828 7.0322266s-2.2389231 4.434559-4.0820312 6.735352c-1.8431082 2.300792-5.0901461 5.578754-9.741211 9.833984l-6.9765625 6.568359v.519531h23.6386719zm44.605469-11.244141h-6.53125v11.244141h-11.2070315v-11.244141h-23.15625v-7.978515l23.7871095-35.0312502h10.576172v34.1035152h6.53125zm-17.7382815-8.90625v-9.203125c0-1.533861.0618483-3.760402.1855465-6.679687.123699-2.9192856.222656-4.6139301.296875-5.0839845h-.296875c-.9153688 2.028656-2.0162692 4.0078029-3.302734 5.9374995l-9.9453125 15.029297zm49.9492185-34.1035152-20.224609 54.2539062h-10.279297l20.224609-54.2539062zm8.794922 54.2539062 20.373047-44.53125h-26.755859v-9.6484375h38.927734v7.1992187l-20.521484 46.9804688z" fill="#f62c72"/></g></svg>