<svg xmlns="http://www.w3.org/2000/svg" width="333" height="379" viewBox="0 0 333 379">
  <g fill="none" fill-rule="evenodd" transform="translate(4 4)">
    <polyline stroke="#231B3B" stroke-width="9.03" points="231.43 .56 231.43 231.47 .58 231.47"/>
    <polygon stroke="#231B3B" stroke-width="9.03" points="323.77 323.83 92.92 323.83 .58 231.47 .58 .56 231.43 .56 323.77 92.92"/>
    <polygon fill="#F62C72" points="284.05 154.23 244.41 114.58 237.88 108.05 231.43 101.6 231.43 134.72 244.41 147.7 250.94 154.23 290.58 193.88 297.11 200.41 323.77 227.08 323.77 193.96 290.58 160.76"/>
    <polygon fill="#F62C72" points="284.05 200.41 244.41 160.76 237.88 154.23 231.43 147.78 231.43 180.9 244.41 193.88 250.94 200.41 290.58 240.06 297.11 246.59 323.77 273.26 323.77 240.14 290.58 206.94"/>
    <polygon fill="#F62C72" points="284.05 61.87 244.41 22.21 237.88 15.68 231.43 9.23 231.43 42.35 244.41 55.34 250.94 61.87 290.58 101.52 297.11 108.05 323.77 134.72 323.77 101.6 290.58 68.4"/>
    <polygon fill="#F62C72" points="284.05 108.05 244.41 68.4 237.88 61.87 231.43 55.41 231.43 88.54 244.41 101.52 250.94 108.05 290.58 147.7 297.11 154.23 323.77 180.9 323.77 147.78 290.58 114.58"/>
    <polygon fill="#F62C72" points="237.88 292.77 198.24 253.12 191.71 246.59 176.59 231.47 143.48 231.47 152.07 240.06 158.6 246.59 198.24 286.24 204.77 292.77 235.82 323.83 268.93 323.83 244.41 299.3"/>
    <polygon fill="#F62C72" points="99.37 292.77 59.73 253.12 53.2 246.59 38.08 231.47 4.97 231.47 13.56 240.06 20.09 246.59 59.73 286.24 66.26 292.77 97.31 323.83 130.42 323.83 105.9 299.3"/>
    <polygon fill="#F62C72" points="145.54 292.77 105.9 253.12 99.37 246.59 84.25 231.47 51.14 231.47 59.73 240.06 66.26 246.59 105.9 286.24 112.43 292.77 143.48 323.83 176.59 323.83 152.07 299.3"/>
    <polygon fill="#F62C72" points="323.77 92.92 292.42 61.56 292.73 61.87"/>
    <polygon fill="#F62C72" points="284.05 292.77 244.41 253.12 237.88 246.59 222.76 231.47 189.65 231.47 198.24 240.06 204.77 246.59 244.41 286.24 250.94 292.77 281.99 323.83 315.1 323.83 290.58 299.3"/>
    <polygon fill="#F62C72" points="284.05 246.59 244.41 206.94 237.88 200.41 231.43 193.96 231.43 227.08 244.41 240.06 250.94 246.59 290.58 286.24 297.11 292.77 323.77 319.44 323.77 286.32 290.58 253.12"/>
    <polygon fill="#F62C72" points="246.56 15.68 268.01 37.14 231.43 .56 244.41 13.54"/>
    <polygon fill="#231B3B" points="290.58 101.52 250.94 61.87 244.41 55.34 231.43 42.35 231.43 55.41 237.88 61.87 244.41 68.4 284.05 108.05 290.58 114.58 323.77 147.78 323.77 134.72 297.11 108.05"/>
    <polygon fill="#231B3B" points="292.73 61.87 292.42 61.56 290.58 59.72 268.01 37.14 246.56 15.68 244.41 13.54 231.43 .56 231.43 9.23 237.88 15.68 244.41 22.21 284.05 61.87 290.58 68.4 323.77 101.6 323.77 92.92"/>
    <polygon fill="#231B3B" points="290.58 147.7 250.94 108.05 244.41 101.52 231.43 88.54 231.43 101.6 237.88 108.05 244.41 114.58 284.05 154.23 290.58 160.76 323.77 193.96 323.77 180.9 297.11 154.23"/>
    <polygon fill="#231B3B" points="290.58 193.88 250.94 154.23 244.41 147.7 231.43 134.72 231.43 147.78 237.88 154.23 244.41 160.76 284.05 200.41 290.58 206.94 323.77 240.14 323.77 227.08 297.11 200.41"/>
    <polygon fill="#231B3B" points="290.58 240.06 250.94 200.41 244.41 193.88 231.43 180.9 231.43 193.96 237.88 200.41 244.41 206.94 284.05 246.59 290.58 253.12 323.77 286.32 323.77 273.26 297.11 246.59"/>
    <polygon fill="#231B3B" points="290.58 286.24 250.94 246.59 244.41 240.06 231.43 227.08 231.43 231.47 222.76 231.47 237.88 246.59 244.41 253.12 284.05 292.77 290.58 299.3 315.1 323.83 323.77 323.83 323.77 319.44 297.11 292.77"/>
    <polygon fill="#231B3B" points="244.41 286.24 204.77 246.59 198.24 240.06 189.65 231.47 176.59 231.47 191.71 246.59 198.24 253.12 237.88 292.77 244.41 299.3 268.93 323.83 281.99 323.83 250.94 292.77"/>
    <polygon fill="#231B3B" points="198.24 286.24 158.6 246.59 152.07 240.06 143.48 231.47 130.42 231.47 145.54 246.59 152.07 253.12 185.6 286.65 185.6 286.6 220.01 320.48 220.01 321.08 222.76 323.83 235.82 323.83 204.77 292.77"/>
    <polygon fill="#231B3B" points="152.07 286.24 112.43 246.59 105.9 240.06 97.31 231.47 84.25 231.47 99.37 246.59 105.9 253.12 145.54 292.77 152.07 299.3 176.59 323.83 189.65 323.83 158.6 292.77"/>
    <polygon fill="#231B3B" points="105.9 286.24 66.26 246.59 59.73 240.06 51.14 231.47 38.08 231.47 53.2 246.59 59.73 253.12 99.37 292.77 105.9 299.3 130.42 323.83 143.48 323.83 112.43 292.77"/>
    <polygon fill="#231B3B" points="59.73 286.24 20.09 246.59 13.56 240.06 4.97 231.47 .58 231.47 13.56 244.45 15.71 246.59 59.73 290.63 61.88 292.77 92.92 323.83 97.31 323.83 66.26 292.77"/>
    <polygon fill="#F62C72" points="220.01 320.48 185.6 286.6 185.6 286.65 152.07 253.12 145.54 246.59 130.42 231.47 97.31 231.47 105.9 240.06 112.43 246.59 152.07 286.24 158.6 292.77 189.65 323.83 190.16 323.83 220.03 352.97 220.01 323.83 222.76 323.83 220.01 321.08"/>
    <polygon fill="#FFF" stroke="#231B3B" stroke-width="9.08" points="226.02 228.25 151.66 228.25 151.66 293.39 84.7 228.25 .54 228.25 .54 .54 226.02 .54"/>
    <path fill="#231B3B" d="M327.93,97.37 L320.21,97.37 L320.21,320.26 L229.27,320.26 L229.27,318.75 L219.27,318.75 L219.41,351.16 L93.15,230.04 C91.1590135,228.126333 87.9936667,228.189013 86.08,230.18 C84.1663333,232.170987 81.1910875,231.05857 83.2447542,233.242122 L172.73,320.25 L91.35,320.25 L91.35,327.97 L180.35,327.97 L180.35,327.55 L219.64,365.25 L229.5,374.84 L229.3,327.97 L327.78,327.97 L327.78,320.56 L327.93,320.56 L327.93,97.37 Z"/>
    <path fill="#F62C72" d="M72.96875,137 L35.0429688,137 L35.0429688,129.021484 L48.6621094,115.253906 C52.6946816,111.122375 55.3294209,108.258797 56.5664062,106.663086 C57.8033916,105.067375 58.6940077,103.5892 59.2382812,102.228516 C59.7825548,100.867832 60.0546875,99.4576896 60.0546875,97.9980469 C60.0546875,95.8209527 59.4547586,94.2005262 58.2548828,93.1367188 C57.055007,92.0729113 55.453135,91.5410156 53.4492188,91.5410156 C51.3463437,91.5410156 49.3053484,92.0234327 47.3261719,92.9882812 C45.3469953,93.9531298 43.2812608,95.326163 41.1289062,97.1074219 L34.8945312,89.7226562 C37.5664196,87.4466032 39.7805902,85.8385464 41.5371094,84.8984375 C43.2936286,83.9583286 45.2109271,83.2347031 47.2890625,82.7275391 C49.3671979,82.2203751 51.6926955,81.9667969 54.265625,81.9667969 C57.6549649,81.9667969 60.6484245,82.5852803 63.2460938,83.8222656 C65.843763,85.059251 67.8600189,86.7910045 69.2949219,89.0175781 C70.7298249,91.2441518 71.4472656,93.7923034 71.4472656,96.6621094 C71.4472656,99.1608198 71.0081424,101.504872 70.1298828,103.694336 C69.2516232,105.8838 67.8909597,108.128895 66.0478516,110.429688 C64.2047434,112.73048 60.9577055,116.008442 56.3066406,120.263672 L49.3300781,126.832031 L49.3300781,127.351562 L72.96875,127.351562 L72.96875,137 Z M117.574219,125.755859 L111.042969,125.755859 L111.042969,137 L99.8359375,137 L99.8359375,125.755859 L76.6796875,125.755859 L76.6796875,117.777344 L100.466797,82.7460938 L111.042969,82.7460938 L111.042969,116.849609 L117.574219,116.849609 L117.574219,125.755859 Z M99.8359375,116.849609 L99.8359375,107.646484 C99.8359375,106.112623 99.8977858,103.886082 100.021484,100.966797 C100.145183,98.0475114 100.24414,96.3528669 100.318359,95.8828125 L100.021484,95.8828125 C99.1061152,97.9114685 98.0052148,99.8906154 96.71875,101.820312 L86.7734375,116.849609 L99.8359375,116.849609 Z M149.785156,82.7460938 L129.560547,137 L119.28125,137 L139.505859,82.7460938 L149.785156,82.7460938 Z M158.580078,137 L178.953125,92.46875 L152.197266,92.46875 L152.197266,82.8203125 L191.125,82.8203125 L191.125,90.0195312 L170.603516,137 L158.580078,137 Z"/>
  </g>
</svg>
