<svg height="361" viewBox="0 0 438 361" width="438" xmlns="http://www.w3.org/2000/svg"><g fill="#fff" fill-opacity=".05"><path d="m358.1 16.8c-.7-4.8-2.7-8.8-6.1-11.7s-8.6-3.8-15.5-2.7l.3-.1c-9.7 1.5-16.5 4.8-20.4 9.9-5.5 1.8-9.7 4.5-12.7 8-4.4 5.2-6 12.3-4.6 21.1.9 5.3 3.7 9.3 8.3 11.9 3 1.7 6.8 2.6 11.4 2.6 2.5 0 5.2-.2 8.1-.7 8.5-1.4 14.7-5.2 18.2-11.2.9-1.5 1.7-3.1 2.3-4.6 3-1.7 5.3-4 6.9-6.8 3.2-5.5 4.5-10.8 3.8-15.7zm-31.9 33.5c-7.3 1.2-12.8.8-16.4-1.3-3.4-1.9-5.3-4.6-5.9-8.5-1.2-7.3 0-12.9 3.5-17.1 1.5-1.7 3.4-3.2 5.7-4.5-.9 3.4-1 7.3-.3 11.7.8 4.5 3 7.9 7.1 10.2s10.1 2.8 18 1.6c1-.2 1.9-.3 2.8-.6-2.8 4.5-7.7 7.4-14.5 8.5z"/><path d="m376.8 204.4-21.4-154.1-30.1 6.5.8 5.1-14.8 3.2 11.9 74.8c-.9-3.2-1.8-6.3-2.5-9.3l-.1-.5c-3.4-13.4-8.9-22.6-12.9-28.6s-8.2-10.4-12.6-13.4-7.7-4.6-10-4.9-5.9.2-10.5 1.3c-11.1 2.6-22.2 8.8-33.2 18.7-5.8 3.8-11.6 8.6-17.3 14.3-3.6 3.6-6.3 8.5-8.2 14.7-1.3-4.7-2.6-9.1-3.7-13.2l-.2-.5c-3.1-12-7.9-20.4-11.4-25.8-3.4-5.4-7.1-9.4-10.9-12.1s-6.7-4.2-8.7-4.5c-2-.2-5 .2-9.1 1.1-9.2 2.1-18.4 7.3-27.4 15.6-5.4 3.5-10.7 8-16 13.4-6.6 6.9-9.8 19.2-9.4 37.1-11.3-23-32-29.4-62.5-19.1-8.5 2.9-17 7.8-25.6 14.3s-14.4 12.9-18 18.8c.4 1 .8 2 1.2 2.9-5.9 5.1-10.4 10.2-13.5 15.3l-.6 1 .4 1.1c12.7 32.4 24.9 61.1 37.3 87.9l21 44.7c22.5 48.7 23.2 49 24.5 49.8l1 .5 18.7-7.2 7.9-3.7c11.9-5.5 22.9-12.9 32.5-21.9 10-9.5 16.1-18.2 18.5-26.7.7-2.5 1.2-5 1.4-7.4 3.1-4.4 5.3-8.7 6.5-12.8 1-3.5 1.5-6.9 1.5-10.4 2.3.5 4.6.8 6.9.8 2.5 0 5-.3 7.5-.8 7.3-1.6 13.2-4.2 17.9-7.8 5-3.7 9.3-9.4 12.7-16.8v-.1c2.6-3 4.9-6.8 6.9-11.2.3-.7.7-1.5.9-2.3 8.6 32.1 20 52.5 34.5 62 6.2 4.1 13 6.1 20.2 6.1 2.9 0 5.9-.3 9-1 8.1-1.8 14.8-4.7 20.6-8.8 5.6-4 10.4-10 14.3-17.8 3.5-3.6 6.5-8.2 9.1-13.5 3.7-7.6 5.9-18.1 6-31.2l30-11.7-1.1-8zm-210.3-94.9c5.5-1.2 10.8 4.7 16 17.8s9.1 26.5 11.8 40.1 3.8 27.5 3.1 41.6-2.8 21.5-6.3 22.2c-.5 0-1-.1-1.6-.4.5-3.2.9-7 1.1-11.5.7-14.1-.4-28.3-3.2-42.2-2.8-14-6.8-27.6-11.9-40.5-4.7-11.9-9.8-18.3-15.3-19.3 1.3-4.6 3.4-7.2 6.3-7.8zm-7.1 12.6c3.6.8 7.7 6.4 11.6 16.3 5 12.6 8.9 26 11.7 39.7 2.7 13.5 3.8 27.2 3.1 41-.2 3.2-.4 5.9-.6 8.1-2.5-3.1-5.2-7.9-8.2-14.5-5.4-12.2-9.6-26.3-12.7-42.3-4.3-22.2-5.9-38.2-4.9-48.3zm-34.1 68.3c4.2 20.3 9.2 36.6 15.1 49.2-8.9.1-16.7 1.3-23.3 3.6 4.5-20.2 7.3-37.9 8.2-52.8zm-21.2 73.3-.6 2.7 4.1-1.4c3.9-1.3 8.2-2.3 13-2.9.7.2 1.4.5 2.1.9 4.9 2.3 8.2 5.6 10.2 10l1 1.7c1.3 4.3 1.3 6.7.9 10.3s-1.4 6.6-2.8 8.9c-1.1 1.8-2.7 3.5-4.6 5.1 0-.6-.1-1.3-.2-2.1l-.5-2-1.6-3.5c-2.3-4.9-6-8.5-11.4-11.1-2.2-1-4.4-1.7-6.8-2l-5.8-12.7c.9-.8 1.9-1.4 3-1.9zm18.1 39c-1.3.8-2.5 1.4-3.4 1.8l-9.5-20.7c.7.2 1.4.5 2.1.8 3.1 1.5 5.5 3.3 7.2 5.6l1.4 3.1c1.5 3.4 2.3 6.6 2.2 9.4zm-55.2-152.5c7.5-2.6 13.2.3 17 8.4 10.9 23.3 12.9 51.2 5.8 83.9l-3.8-9.4c1.1-20.9-2.3-39.7-10-56.1-3.9-8.3-9.2-10.8-14.1-10.8-1 0-2.1.1-3.1.3l-3.2-7.8c3.6-4.2 7.5-7.1 11.4-8.5zm14.1 71.3-20.5-50.2c4.7-.5 8.1 2 10.9 7.9 5.9 12.5 9.2 26.7 9.6 42.3zm59 102.6c-9.2 8.7-19.7 15.7-31.2 21l-7.7 3.6-15.8 6.1c-3.5-6.2-15.4-31.9-22.1-46.4l-21-44.7c-12.3-26.2-24.3-54.5-36.8-86.4 2.6-4 6.1-8 10.6-12 10.2 25.8 21.5 52.6 34.2 80l21 44.7c14.6 31.5 22.3 47.7 23.4 48.3l17.7-6.8 7.8-3.6c11.6-5.4 22.2-12.5 31.8-21.5 1.6-1.5 3.1-3 4.5-4.5-2.5 6.9-8.1 14.3-16.4 22.2zm60.7-65.4c-4.2 3.2-9.4 5.5-16 7-5 1.1-9.6 1-13.9-.3-.5-2.8-1.4-5.5-2.6-8.3-5-10.9-12.5-16.7-22.3-17.4-6.3-12.8-11.7-30-16.1-51.7-8.4-41.5-7.6-67.8 2.3-78.1.5-.6 1-1.1 1.6-1.6-4.7 14.1-3.7 37.4 2.9 70 11.9 58.9 31 85.4 57.9 79.6 4.1-.9 7.8-2.2 11.2-3.8-1.7 1.7-3.3 3.3-5 4.6zm66.9-138c6.4-1.4 12.5 5.1 18.3 19.6s10.1 29.4 13.2 44.5c3 15.1 4.1 30.5 3.1 46.3-1 15.6-3.5 23.9-7.6 24.8-.7 0-1.4-.2-2.2-.5.6-3.5 1.1-7.7 1.4-12.6 1-15.7-.1-31.5-3.2-46.9-3-15.2-7.5-30.3-13.3-44.9-5.3-13.1-10.9-20.1-17.1-21.2 1.4-5.4 3.9-8.4 7.4-9.1zm-8.3 13.9c5.5 1 10.2 10.2 13.5 18.1 5.7 14.3 10.1 29.2 13 44.1 3 15 4 30.3 3.1 45.6-.2 3.7-.5 6.8-.9 9.4-3-3.4-6.1-8.9-9.5-16.5-6-13.6-10.8-29.3-14.2-47-4.7-24.6-6.4-42.5-5-53.7zm46.4 151.9c-5.2 3.8-11.4 6.4-18.8 8-9.5 2.1-17.9.6-25.5-4.4-14.5-9.5-26.1-32.2-34.6-67.5.9-4.9 1.3-10.5 1.3-16.9 0-12.1-1.7-26.7-5-43.5-1.3-7-2.9-13.6-4.6-19.7 1.4-9.7 4.3-16.8 8.8-21.3.8-.8 1.6-1.6 2.5-2.4-5.9 15.7-5 41.9 2.3 78.6 13.1 65.6 34.9 94.8 66.2 88 5-1.1 9.6-2.7 13.7-4.8-1.9 2.4-4 4.4-6.3 5.9zm35.4-65-24.3-152.5 10-2.2 23.7 147.8 11.8-4.6.4 3zm96.3-26.5c-.4-4.3-2.2-7.6-5.6-10-3.3-2.4-8.6-3.4-15.6-2.7-6.2.6-10.9 2.9-14 6.8-6.3 1.2-11 4.3-14 9.2-3.3 5.4-4.8 10.7-4.5 15.9.3 5.3 2.1 9.7 5.4 13.1 3 3 7.2 4.5 12.5 4.5 1 0 2 0 3-.1l7.1-1.5c5.6-1.5 9.8-4 12.8-7.6 1.4-1.7 2.5-3.7 3.3-5.9 7.5-4.1 10.7-11.3 9.6-21.7zm-16.5 24.3c-3.3 4-9 6.4-16.9 7.1l-3.2.3c-3.5-.1-6.2-1.2-8-3-2.4-2.5-3.7-5.8-4-10-.3-4.1 1-8.5 3.8-13 1.5-2.5 3.6-4.4 6.4-5.6-1.4 3.4-2 6.8-1.8 10 .3 4.7 1.8 8.6 4.7 11.5s7.4 4.2 13.6 3.6l-.4-.2c2.2-.2 4.2-.5 6.1-1-.2.2-.3.3-.3.3zm6.5-52.3-4.9-166.6-32 6.4.3 4.1-13.6 2.8 12.6 167 29.3-2.7-.3-10.2zm-13.2 6.5-19.8 1.8-12-157.8 8.8-1.8 11.6 153.4 11.2-1z"/></g></svg>