<svg xmlns="http://www.w3.org/2000/svg" width="310.000000pt" height="310.000000pt" viewBox="0 0 310.000000 310.000000">
    <g transform="translate(0.000000,310.000000) scale(0.100000,-0.100000)"
       fill="#000000" stroke="none">
        <path d="M50 3050 l-50 -49 0 -1451 0 -1451 50 -49 49 -50 1451 0 1451 0 49
50 50 49 0 1451 0 1451 -50 49 -49 50 -1451 0 -1451 0 -49 -50z m1670 -705
c245 -57 448 -219 552 -440 l30 -65 58 0 c110 0 194 -49 246 -142 25 -46 29
-63 29 -133 0 -63 -5 -89 -22 -121 -51 -96 -145 -154 -249 -154 l-60 0 -42
-83 c-80 -157 -199 -274 -357 -352 -113 -56 -184 -75 -311 -82 -143 -8 -277
19 -399 80 -141 71 -280 209 -350 350 l-46 92 -69 -4 c-81 -3 -153 24 -208 78
-58 58 -77 106 -77 196 0 70 4 87 29 133 54 97 136 142 260 142 l71 0 19 48
c85 209 300 391 536 451 94 24 268 27 360 6z"/>
        <path d="M1127 1949 c-118 -28 -224 -117 -280 -237 -29 -63 -31 -74 -31 -177
0 -124 11 -162 70 -251 45 -67 126 -131 197 -154 44 -14 55 -23 70 -56 51
-107 129 -176 245 -216 78 -26 240 -31 307 -9 133 44 231 123 262 212 17 48
22 53 81 79 84 39 164 120 204 207 40 88 50 217 23 308 -59 203 -255 333 -447
296 -88 -18 -150 -55 -220 -130 l-59 -65 -27 34 c-101 132 -252 193 -395 159z
m208 -404 c65 -64 -11 -163 -100 -129 -23 9 -48 62 -41 90 16 63 96 85 141 39z
m550 0 c67 -66 -21 -170 -104 -125 -31 16 -46 65 -31 100 15 37 35 49 78 50
22 0 41 -8 57 -25z"/>
    </g>
</svg>
