<svg height="310pt" viewBox="0 0 310 310" width="310pt" xmlns="http://www.w3.org/2000/svg"><g transform="matrix(.1 0 0 -.1 0 310)"><path d="m50 3050-50-49v-1451-1451l50-49 49-50h1451 1451l49 50 50 49v1451 1451l-50 49-49 50h-1451-1451zm1670-705c245-57 448-219 552-440l30-65h58c110 0 194-49 246-142 25-46 29-63 29-133 0-63-5-89-22-121-51-96-145-154-249-154h-60l-42-83c-80-157-199-274-357-352-113-56-184-75-311-82-143-8-277 19-399 80-141 71-280 209-350 350l-46 92-69-4c-81-3-153 24-208 78-58 58-77 106-77 196 0 70 4 87 29 133 54 97 136 142 260 142h71l19 48c85 209 300 391 536 451 94 24 268 27 360 6z"/><path d="m1127 1949c-118-28-224-117-280-237-29-63-31-74-31-177 0-124 11-162 70-251 45-67 126-131 197-154 44-14 55-23 70-56 51-107 129-176 245-216 78-26 240-31 307-9 133 44 231 123 262 212 17 48 22 53 81 79 84 39 164 120 204 207 40 88 50 217 23 308-59 203-255 333-447 296-88-18-150-55-220-130l-59-65-27 34c-101 132-252 193-395 159zm208-404c65-64-11-163-100-129-23 9-48 62-41 90 16 63 96 85 141 39zm550 0c67-66-21-170-104-125-31 16-46 65-31 100 15 37 35 49 78 50 22 0 41-8 57-25z"/></g></svg>